<mxfile host="Electron" modified="2023-08-17T22:34:05.889Z" agent="Mozilla/5.0 (X11; Linux x86_64) AppleWebKit/537.36 (KHTML, like Gecko) draw.io/21.6.5 Chrome/114.0.5735.243 Electron/25.3.1 Safari/537.36" etag="yJ4O-PB-VFTyycgVWp0f" version="21.6.5" type="device">
  <diagram name="Page-1" id="t22ChGSzWdx-uK1gvFWy">
    <mxGraphModel dx="683" dy="401" grid="1" gridSize="10" guides="1" tooltips="1" connect="1" arrows="1" fold="1" page="1" pageScale="1" pageWidth="827" pageHeight="1169" math="0" shadow="0">
      <root>
        <mxCell id="0" />
        <mxCell id="1" parent="0" />
        <mxCell id="Wl1wPwH1q09lEzlDz1Lh-6" style="edgeStyle=orthogonalEdgeStyle;rounded=0;orthogonalLoop=1;jettySize=auto;html=1;entryX=0.5;entryY=0;entryDx=0;entryDy=0;" edge="1" parent="1" target="Wl1wPwH1q09lEzlDz1Lh-5">
          <mxGeometry relative="1" as="geometry">
            <mxPoint x="310" y="430" as="sourcePoint" />
            <mxPoint x="140" y="480" as="targetPoint" />
            <Array as="points">
              <mxPoint x="280" y="430" />
              <mxPoint x="280" y="470" />
              <mxPoint x="140" y="470" />
            </Array>
          </mxGeometry>
        </mxCell>
        <mxCell id="Wl1wPwH1q09lEzlDz1Lh-14" style="edgeStyle=orthogonalEdgeStyle;rounded=0;orthogonalLoop=1;jettySize=auto;html=1;" edge="1" parent="1" source="Wl1wPwH1q09lEzlDz1Lh-1">
          <mxGeometry relative="1" as="geometry">
            <mxPoint x="310" y="540" as="targetPoint" />
          </mxGeometry>
        </mxCell>
        <mxCell id="Wl1wPwH1q09lEzlDz1Lh-1" value="list_files(&amp;amp;folder_path)" style="rounded=0;whiteSpace=wrap;html=1;" vertex="1" parent="1">
          <mxGeometry x="250" y="380" width="120" height="60" as="geometry" />
        </mxCell>
        <mxCell id="Wl1wPwH1q09lEzlDz1Lh-2" value="spinner()" style="rounded=0;whiteSpace=wrap;html=1;" vertex="1" parent="1">
          <mxGeometry x="414" y="380" width="120" height="60" as="geometry" />
        </mxCell>
        <mxCell id="Wl1wPwH1q09lEzlDz1Lh-4" style="edgeStyle=orthogonalEdgeStyle;rounded=0;orthogonalLoop=1;jettySize=auto;html=1;entryX=0;entryY=0.5;entryDx=0;entryDy=0;" edge="1" parent="1" source="Wl1wPwH1q09lEzlDz1Lh-3" target="Wl1wPwH1q09lEzlDz1Lh-1">
          <mxGeometry relative="1" as="geometry" />
        </mxCell>
        <mxCell id="Wl1wPwH1q09lEzlDz1Lh-3" value="folder_path" style="shape=process;whiteSpace=wrap;html=1;backgroundOutline=1;" vertex="1" parent="1">
          <mxGeometry x="80" y="380" width="120" height="60" as="geometry" />
        </mxCell>
        <mxCell id="Wl1wPwH1q09lEzlDz1Lh-5" value="&lt;div style=&quot;color: rgb(204, 204, 204); background-color: rgb(31, 31, 31); font-family: &amp;quot;Droid Sans Mono&amp;quot;, &amp;quot;monospace&amp;quot;, monospace; font-size: 14px; line-height: 19px;&quot;&gt;nbs_of_file&lt;/div&gt;" style="shape=process;whiteSpace=wrap;html=1;backgroundOutline=1;" vertex="1" parent="1">
          <mxGeometry x="80" y="490" width="120" height="60" as="geometry" />
        </mxCell>
        <mxCell id="Wl1wPwH1q09lEzlDz1Lh-9" style="edgeStyle=orthogonalEdgeStyle;rounded=0;orthogonalLoop=1;jettySize=auto;html=1;entryX=0.5;entryY=0;entryDx=0;entryDy=0;" edge="1" parent="1" source="Wl1wPwH1q09lEzlDz1Lh-8" target="Wl1wPwH1q09lEzlDz1Lh-1">
          <mxGeometry relative="1" as="geometry" />
        </mxCell>
        <mxCell id="Wl1wPwH1q09lEzlDz1Lh-8" value="main" style="shape=hexagon;perimeter=hexagonPerimeter2;whiteSpace=wrap;html=1;fixedSize=1;" vertex="1" parent="1">
          <mxGeometry x="250" y="210" width="120" height="80" as="geometry" />
        </mxCell>
        <mxCell id="Wl1wPwH1q09lEzlDz1Lh-12" style="edgeStyle=orthogonalEdgeStyle;rounded=0;orthogonalLoop=1;jettySize=auto;html=1;exitX=1;exitY=0.5;exitDx=0;exitDy=0;" edge="1" parent="1" source="Wl1wPwH1q09lEzlDz1Lh-11" target="Wl1wPwH1q09lEzlDz1Lh-2">
          <mxGeometry relative="1" as="geometry" />
        </mxCell>
        <mxCell id="Wl1wPwH1q09lEzlDz1Lh-13" style="edgeStyle=orthogonalEdgeStyle;rounded=0;orthogonalLoop=1;jettySize=auto;html=1;entryX=0.5;entryY=1;entryDx=0;entryDy=0;exitX=0;exitY=0.5;exitDx=0;exitDy=0;endArrow=none;endFill=0;" edge="1" parent="1" source="Wl1wPwH1q09lEzlDz1Lh-11" target="Wl1wPwH1q09lEzlDz1Lh-8">
          <mxGeometry relative="1" as="geometry" />
        </mxCell>
        <mxCell id="Wl1wPwH1q09lEzlDz1Lh-11" value="Thread" style="triangle;whiteSpace=wrap;html=1;" vertex="1" parent="1">
          <mxGeometry x="370" y="290" width="60" height="80" as="geometry" />
        </mxCell>
        <mxCell id="Wl1wPwH1q09lEzlDz1Lh-16" value="" style="endArrow=none;dashed=1;html=1;rounded=0;" edge="1" parent="1" target="Wl1wPwH1q09lEzlDz1Lh-17">
          <mxGeometry width="50" height="50" relative="1" as="geometry">
            <mxPoint x="230" y="450" as="sourcePoint" />
            <mxPoint x="590" y="450" as="targetPoint" />
          </mxGeometry>
        </mxCell>
        <mxCell id="Wl1wPwH1q09lEzlDz1Lh-17" value="Stop" style="text;html=1;strokeColor=none;fillColor=none;align=center;verticalAlign=middle;whiteSpace=wrap;rounded=0;" vertex="1" parent="1">
          <mxGeometry x="560" y="435" width="60" height="30" as="geometry" />
        </mxCell>
      </root>
    </mxGraphModel>
  </diagram>
</mxfile>
